<svg width="95" height="100" viewBox="0 0 95 100" fill="none" xmlns="http://www.w3.org/2000/svg">
<rect width="94" height="99" transform="translate(0.333252 0.253906)" fill="black"/>
<g clip-path="url(#clip0_224_2859)">
<path d="M43.311 18.8372C44.2577 18.815 45.2665 19.0795 46.1067 19.4925C51.0136 21.903 55.7552 25.4 60.6646 27.8892C61.353 28.2768 62.0422 28.9916 62.062 29.8279C62.159 33.9285 61.8458 38.0975 61.9857 42.214L62.0644 42.5325L81.8727 54.0974C82.666 54.6613 83.2677 55.3785 83.4148 56.3673C83.2836 58.7508 83.6612 61.4663 83.4347 63.8125C83.2844 65.366 82.112 66.0451 80.918 66.7766C73.2702 71.4602 65.2655 75.661 57.5032 80.1365C55.1877 80.9021 52.7004 80.8799 50.4699 79.8601L12.4694 57.7342C11.905 57.2331 11.4313 56.685 11.2556 55.9297C11.4027 53.4231 10.9925 50.5511 11.2373 48.0866C11.3248 47.2042 11.8399 46.6228 12.4694 46.0621L26.1299 38.1189L26.168 28.9439C26.2777 28.2029 26.8 27.6398 27.4153 27.2522C31.8969 24.9163 36.2244 21.7553 40.7299 19.5187C41.5527 19.1113 42.381 18.8595 43.311 18.8372ZM38.1632 22.2326L56.0152 33.1804C56.1797 33.2368 56.2982 33.1375 56.4349 33.0779C57.0247 32.8214 60.4404 30.8239 60.7989 30.4538C61.4468 29.7842 61.0159 29.1655 60.3474 28.762C55.7537 26.2284 51.3181 23.3827 46.7148 20.8705C45.3642 20.1334 44.5995 19.6505 42.9652 19.7689C41.7983 19.8539 39.3293 21.2017 38.3754 21.9308C38.2729 22.0086 38.1306 22.0706 38.1632 22.2334V22.2326ZM33.0003 25.0148L50.9508 36.1008L51.1837 36.0944L55.1583 33.7101L37.3691 22.7441C37.1322 22.6424 36.935 22.81 36.7316 22.9069C35.4851 23.5002 34.2991 24.4986 33.0003 25.014V25.0148ZM31.9486 25.6621C30.8016 26.4127 29.5233 26.9996 28.3683 27.7287C27.2133 28.4578 26.4781 28.9574 27.8898 30.0828C32.6903 32.6284 37.3007 35.7481 42.0932 38.2778C43.5328 39.0379 44.8301 39.3286 46.4405 38.8107L50.0764 36.7274L31.9486 25.6621ZM44.1989 40.0243C43.5479 39.9282 42.8857 39.821 42.3046 39.4961L27.1227 30.7317C27.106 32.5982 27.141 34.467 27.1251 36.3343C27.1148 37.5638 27.0448 38.8322 27.0393 40.0609C27.025 43.1147 27.0186 46.1868 27.0885 49.2319C27.2261 49.5615 27.4478 49.8061 27.7308 50.0198C32.5885 52.6201 37.1982 55.747 42.0654 58.3212C42.7705 58.6937 43.408 58.9399 44.1989 59.0868V40.0251V40.0243ZM50.6329 42.4467V37.6416C50.4063 37.6289 50.2155 37.7687 50.024 37.8664C48.4238 38.686 46.993 40.0243 45.0733 40.0243V58.9669C45.0733 59.2584 45.9572 58.8271 46.1265 58.9081C50.6806 56.2974 55.4333 53.8655 59.8713 51.0491C60.1694 50.8601 60.698 50.5853 60.8673 50.2978C61.1884 49.7529 61.0159 47.8706 61.035 47.1296C61.0398 46.9413 61.1169 46.7682 61.1209 46.58C61.225 41.5405 61.0366 36.4868 61.1169 31.4466L56.6288 34.0667L56.5899 39.5081C56.5501 40.0775 55.9452 40.863 55.357 40.9027C54.9333 40.9313 54.0224 40.369 53.8117 40.458C53.1209 41.0838 52.2354 43.7294 50.9993 43.0329C50.8523 42.9495 50.6583 42.6024 50.6329 42.4467ZM55.7163 39.4286V34.7426L55.5589 34.6624C54.2378 35.5289 52.768 36.181 51.5065 37.1253V42.0099L51.7505 41.9599C52.1408 41.3769 52.946 39.7066 53.6297 39.566C54.268 39.435 54.7934 39.956 55.4222 39.9481C55.4746 39.9362 55.7044 39.4954 55.7163 39.4278V39.4286ZM61.9905 43.5984V47.5299L70.8465 52.7321C72.4538 54.4286 71.8076 55.8844 70.0365 57.0051C64.5533 60.4751 58.5406 63.3916 53.0184 66.833C51.7577 67.4096 50.0788 67.4176 48.8308 66.8044C39.943 61.4473 30.7936 56.5119 21.9058 51.1571C21.0123 50.6187 20.0981 50.2755 19.6967 49.2359C19.2834 48.166 19.6061 47.0851 20.5043 46.3917L26.1696 43.0813V39.269L26.0122 39.1888L13.3883 46.5045C11.8876 47.5513 11.6817 48.6847 13.103 49.9531L51.1988 72.0623C53.3348 72.8716 55.7664 72.874 57.8514 71.905L81.0786 58.5165C82.8822 57.3482 83.0237 55.8574 81.1263 54.6843L61.9905 43.5984ZM61.9905 48.6021V50.2303C61.9905 50.5313 61.2528 51.3398 60.9841 51.5273C56.4564 53.8853 52.0995 57.0178 47.5749 59.3243C45.7903 60.2345 43.877 60.3218 42.0527 59.4442C37.4382 56.5969 32.5742 54.1355 27.955 51.3025C27.2285 50.8569 26.3962 50.405 26.168 49.5155V44.2338L25.9343 44.2767C24.5353 45.3235 22.3263 46.0748 21.0131 47.1391C20.0226 47.9413 20.3326 49.3733 21.4582 49.857L49.5049 66.1301C50.4787 66.4446 51.551 66.4303 52.5144 66.0904L70.2519 55.7899C71.0174 55.2117 71.0039 54.0609 70.2885 53.4477L61.9905 48.6013V48.6021ZM53.9683 79.7362V73.6603C53.7481 73.4387 53.3578 73.5705 53.0557 73.5403C52.3324 73.4681 51.524 73.2417 50.8562 72.9605C38.4263 65.5733 25.6204 58.7405 13.2771 51.208C12.9042 50.9808 12.5187 50.7576 12.2278 50.4296C12.0481 50.3963 12.1181 50.5082 12.1093 50.6266C12.0362 51.6305 12.157 52.6495 12.192 53.6423C12.2453 55.1768 11.8287 56.0878 13.2262 57.1346L50.4985 78.7966C51.5836 79.3963 52.7354 79.6711 53.9667 79.7362H53.9683ZM54.9214 73.8191C54.8649 75.788 54.9635 77.7673 54.9214 79.7362C55.7656 79.6981 56.5963 79.517 57.3824 79.2183C65.6041 74.5657 73.8656 69.9131 81.9259 65.0023C82.9546 63.9118 82.5269 61.205 82.4792 59.7651C82.4673 59.4037 82.4617 59.0368 82.5619 58.6897C82.4132 58.5602 81.8512 59.1901 81.6644 59.2607L58.5493 72.6023C57.8188 73.0019 57.0271 73.2806 56.2107 73.4411C55.9277 73.4967 54.9564 73.4943 54.8801 73.7C54.8514 73.7524 54.9222 73.8008 54.9214 73.8199V73.8191Z" fill="white"/>
<path d="M67.0582 62.0383C67.6067 61.9446 67.8388 62.607 67.3436 62.8858L62.2117 65.8554C61.6489 66.1175 61.2212 65.4384 61.7618 65.0882L67.0582 62.0383Z" fill="white"/>
<path d="M15.1844 55.1289C15.2806 55.0996 15.3808 55.1027 15.4785 55.117L19.5723 57.4616C19.9825 57.8635 19.6438 58.3766 19.0246 58.1677C18.4904 57.9874 15.8418 56.3958 15.3092 56.0066C15.1765 55.9089 14.8967 55.7207 14.8919 55.5539C14.8887 55.4196 15.0517 55.1695 15.1844 55.1289Z" fill="white"/>
<path d="M23.8402 59.9036C24.1741 60.2626 23.9293 60.7701 23.3681 60.6565C23.1646 60.6152 21.2711 59.4675 21.2035 59.3214C21.0485 58.9878 21.3919 58.624 21.7425 58.6995L23.841 59.9028L23.8402 59.9036Z" fill="white"/>
<path d="M37.3009 23.1739L54.2079 33.6094L51.0897 35.558L34.1764 25.1206L37.3009 23.1739Z" fill="#EC1C24"/>
<path d="M52.0911 37.4803L55.1703 35.6133V38.5284L52.0911 40.1004V37.4803Z" fill="#EC1C24"/>
</g>
<defs>
<clipPath id="clip0_224_2859">
<rect width="72.3516" height="61.8354" fill="white" transform="translate(11.1575 18.8359)"/>
</clipPath>
</defs>
</svg>
