<svg width="94" height="100" viewBox="0 0 94 100" fill="none" xmlns="http://www.w3.org/2000/svg">
<rect width="94" height="99" transform="translate(-0.000244141 0.253906)" fill="black"/>
<g clip-path="url(#clip0_224_2894)">
<path d="M71.1292 16.6151C72.2115 17.2263 74.7067 18.4738 75.2403 19.5247C75.3 19.6424 75.2571 19.787 75.2916 19.8769C75.3202 19.95 75.4288 19.9391 75.4465 20.0047C75.5003 20.2022 75.5289 20.5234 75.5416 20.7352C75.6468 22.5065 75.3278 24.6276 75.1166 26.3711C72.8023 45.4342 66.9079 65.4977 53.9199 79.9809C51.5972 82.571 50.2414 84.2918 46.4838 84.5037C42.4552 84.7307 39.6292 83.9018 36.2436 81.9825C34.658 81.0838 32.799 79.991 31.2876 79.0141C22.7953 73.5253 19.8329 59.5987 18.6918 50.2479C18.4528 48.2883 18.1877 47.0071 18.8887 45.0635C20.0593 41.8185 23.0679 39.9228 25.4563 37.6756C29.9402 33.458 34.1245 28.6788 37.7769 23.744C39.3969 21.5557 41.8013 17.1935 44.0853 15.9459C46.3694 14.6984 47.8556 15.856 50.0235 16.3175C54.5898 17.2876 59.4575 17.1094 63.954 15.9703C64.9639 15.7139 66.9062 14.8656 67.8446 14.9791C68.6912 15.0809 70.3087 16.1536 71.1275 16.6159L71.1292 16.6151ZM68.3604 16.0216C67.9548 15.8568 67.1048 15.877 66.6849 15.9938C65.8728 16.22 64.9327 16.5756 64.097 16.7832C58.5763 18.156 53.5151 18.0871 48.007 16.7378C47.1411 16.526 46.2642 15.9879 45.3502 16.3671C45.6187 16.7235 45.9932 16.7748 46.3365 16.9749C47.0434 17.3868 47.8118 17.9534 48.5288 18.3359C48.6652 18.4082 49.4739 18.8235 49.5294 18.8319C49.8989 18.8891 50.0378 18.6277 50.1236 18.6016C51.4003 18.2241 52.0693 18.4873 53.192 18.7832C59.4221 20.4259 64.3512 20.4124 70.4719 18.6008C70.7816 18.5091 71.6274 18.3889 71.8395 18.2174C71.9439 18.1325 71.9388 18.1325 71.8378 18.051C70.6807 17.4583 69.6203 16.6975 68.4623 16.1468C68.4059 16.1199 68.3865 16.0317 68.3613 16.0216H68.3604ZM48.0912 19.0505L44.363 16.927C43.8732 16.8471 42.5739 18.4057 42.2701 18.8C40.576 20.9967 39.0603 23.5204 37.3553 25.7599C33.3216 31.057 28.6745 36.0439 23.7008 40.502C23.0158 41.1165 22.2213 41.6058 21.5893 42.3002C21.2863 42.6331 19.7681 44.6457 19.9642 44.9803L24.4936 47.5149C24.9716 46.2043 25.9116 44.9693 26.9636 44.0177C27.726 43.3275 28.6972 42.6709 29.4748 41.9664C34.7969 37.141 39.5838 31.5732 43.8017 25.7919C45.1339 23.9659 46.4451 21.5894 48.0222 20.0291C48.1047 19.9475 48.613 19.6171 48.6281 19.5541C48.6803 19.3515 48.2822 19.1674 48.0904 19.0505H48.0912ZM73.4949 19.0438C73.0926 18.8958 72.1669 19.0732 71.7326 19.1901C70.355 19.56 68.8948 20.0845 67.4995 20.3536C62.1875 21.3792 57.5261 20.9353 52.5473 19.5986C51.1806 19.2313 50.7177 19.243 49.4975 20.0123C48.1939 20.8336 47.5105 22.156 46.6614 23.3548C41.0094 31.3311 35.4458 37.8261 28.1973 44.2817C25.336 46.8306 24.2562 48.7187 24.7519 52.7641C26.2154 64.7142 30.5672 84.6323 46.3155 83.6622C49.3494 83.4755 50.1598 82.6643 52.1627 80.5971C66.2986 66.003 72.7366 42.9021 74.5376 23.1017C74.5578 22.8789 74.6798 22.6579 74.6966 22.4199C74.769 21.3741 74.7951 19.8626 73.8298 19.2094C73.7642 19.1657 73.6489 19.2035 73.5891 19.1766C73.5075 19.1396 73.5109 19.0497 73.4957 19.0438H73.4949ZM20.0046 46.037C19.8961 45.9739 19.6781 45.7739 19.5771 45.9185C19.5106 46.0126 19.2935 46.881 19.2767 47.0483C19.1092 48.7271 19.742 51.5644 20.0181 53.2937C21.3966 61.9224 24.1813 73.5388 32.0845 78.4534C32.2032 78.5273 32.6618 78.9973 32.8192 78.8712L30.8028 76.1205C26.2667 68.4056 24.6779 59.7879 23.6469 50.8372C23.7075 50.0066 23.8085 49.1988 24.0812 48.4094L20.9834 46.5944C20.6223 46.475 20.3076 46.2144 20.0046 46.0378V46.037Z" fill="white"/>
<path d="M65.5903 46.5671C65.1888 47.5128 64.9187 48.6755 64.5795 49.7137C61.0946 60.3878 55.6446 70.7465 47.5596 78.7893C47.1052 79.1289 44.3802 79.097 43.7128 79.0373C43.3972 79.0095 42.6019 78.8649 42.2998 78.7825C33.6914 76.4228 30.6533 62.0557 29.5508 54.3559C29.4372 53.5615 29.0358 51.1731 29.1427 50.5174C29.4246 48.7797 31.4982 47.4061 32.7353 46.2905C39.9468 39.7879 45.9985 32.4841 51.3837 24.4002C51.5445 24.2321 51.6724 24.1018 51.9391 24.1497C52.8497 24.3203 53.7418 24.6339 54.649 24.8105C58.0666 25.4754 62.2837 25.6427 65.7342 25.2274C66.4285 25.1442 67.2524 24.8962 67.9383 24.8256C68.9995 24.7163 69.7628 25.4763 69.6441 26.5313C68.9187 33.0053 67.43 39.8232 65.6214 46.1325C65.5827 46.267 65.6542 46.4166 65.5903 46.5671ZM68.6174 25.8512C68.2648 25.467 68.0594 25.7797 67.7573 25.8209C62.8745 26.4884 57.9606 26.4851 53.1502 25.3838C52.9011 25.3266 52.1024 24.9677 51.9223 25.0811L49.438 28.8188C44.912 34.9011 40.0982 40.8034 34.5195 45.9114C33.401 46.9353 32.0444 47.9046 31.0118 48.9395C30.655 49.2976 29.9363 50.3526 29.9548 50.8327C29.9624 51.0336 30.1046 51.1706 30.1265 51.3438C30.942 57.9582 31.9948 64.7282 34.9983 70.6188C37.369 75.2685 40.8094 78.7741 46.4875 78.1991C47.1203 78.1352 47.6808 77.4097 48.1226 76.9558C59.6286 65.135 65.4943 47.2531 68.0468 31.3215C68.2926 29.7889 68.5223 28.1933 68.6494 26.628C68.6713 26.3573 68.9566 26.2203 68.6182 25.8512H68.6174Z" fill="white"/>
<path d="M58.1859 35.3567C58.9627 35.7653 59.3397 36.8876 59.3978 37.7173C59.7369 42.5613 59.1369 47.7995 59.3936 52.6847C58.8247 57.5429 54.0126 59.1991 50.3812 61.3117C48.3008 62.5214 46.2465 63.7656 44.1611 64.9282C42.7784 65.6991 41.1138 67.1611 39.4685 66.2136C38.138 65.4478 38.3736 64.0161 38.2011 62.6929C38.515 58.3769 37.7938 53.4867 38.2036 49.2379C38.5226 45.9358 40.5474 44.1308 43.1529 42.5663C46.706 40.4327 50.377 38.3201 54.0807 36.2781C55.365 35.5702 56.6686 34.5572 58.1876 35.3567H58.1859ZM44.6779 48.5654V42.7227C43.5207 43.5079 42.0538 44.035 41.0616 45.0573C38.244 47.9584 39.1033 52.4409 39.1319 56.1272C39.1504 58.5635 39.0452 61.0242 39.2118 63.4453C39.2649 64.2103 39.1041 65.0569 39.9516 65.4772C40.5895 65.7941 40.8529 65.6336 41.5001 65.4789L55.6738 57.2916C57.2619 56.102 58.2112 54.3677 58.5554 52.4342L58.5587 37.798C58.3887 36.9296 58.079 35.8712 56.9959 35.9048C56.6753 35.9149 55.986 36.1949 55.6806 36.3437L52.9362 37.9468L52.9227 44.4494C52.7578 45.0934 52.4009 45.9139 51.6158 45.9231C51.0797 45.9299 50.4435 45.681 49.9284 45.5844C49.6532 45.5331 49.4066 45.5802 49.1096 45.4196L46.2364 49.1581C45.8897 49.3926 45.5943 49.5137 45.166 49.3531C45.017 49.2976 44.7031 48.699 44.677 48.5637L44.6779 48.5654ZM51.9095 38.6875L45.6869 42.1342V48.2711L46.0488 47.913C46.7523 47.0421 47.4003 45.8836 48.1308 45.0598C48.6013 44.5285 48.9572 44.4789 49.6776 44.5764C49.7997 44.5932 49.8939 44.7143 50.0235 44.7353C50.5259 44.816 51.0384 44.8488 51.535 44.9959C51.5838 44.9211 51.9112 44.763 51.9112 44.7403V38.6875H51.9095Z" fill="white"/>
<path d="M40.0037 60.3169L56.9444 51.8105V54.7694L40.0037 63.6085V60.3169Z" fill="#EC1C24"/>
</g>
<defs>
<clipPath id="clip0_224_2894">
<rect width="57.125" height="69.5725" fill="white" transform="translate(18.4373 14.9678)"/>
</clipPath>
</defs>
</svg>
