<svg width="95" height="100" viewBox="0 0 95 100" fill="none" xmlns="http://www.w3.org/2000/svg">
<rect width="94" height="99" transform="translate(0.666504 0.253906)" fill="black"/>
<g clip-path="url(#clip0_224_2874)">
<path d="M80.031 63.5646C79.5385 63.0809 78.8705 62.8553 78.3024 62.4859C78.0726 59.6395 78.2239 56.7779 78.089 53.9301L72.8511 50.655L70.5009 38.6195C68.8637 37.2899 67.0516 36.1642 65.2466 35.0899L62.4454 36.6537V32.0201C62.4454 31.9666 62.3155 31.8379 62.2662 31.7902C61.7759 31.3195 60.3414 30.551 59.6883 30.1454C53.422 26.2579 47.1179 22.4088 40.8216 18.5705C38.248 17.0016 35.6287 15.325 33.0116 13.8501C32.5455 13.5877 31.9582 13.1213 31.4193 13.2912C26.4063 16.0957 21.3668 18.8784 16.3845 21.7443C16.2646 21.813 15.8071 22.069 15.7528 22.134C15.5601 22.369 15.7493 23.1809 15.7557 23.5034C15.8385 27.6764 15.7514 31.9131 15.7557 36.0666L15.7657 45.8732C15.8014 45.9925 17.2024 46.8803 17.4265 47.0054C18.5584 47.6387 18.3036 47.4153 18.7882 46.5586C19.7531 44.853 22.214 45.6028 23.6136 46.265L23.6107 46.2665C23.7192 46.3156 23.8234 46.3756 23.9233 46.4429C24.1238 46.534 24.3023 46.6641 24.4721 46.8073C24.5906 46.8875 24.7077 46.9815 24.814 47.0769C24.9653 47.2121 25.0973 47.369 25.2208 47.5317C26.721 48.9314 27.7537 51.4329 28.359 53.2997C28.4239 53.5014 28.6573 54.1839 28.7936 54.6509C28.9085 54.7478 29.007 54.8656 29.1076 54.9951C29.1226 55.003 29.1376 55.0102 29.1519 55.0189C29.3289 55.118 29.4994 55.2199 29.6436 55.3493L29.715 55.3565L46.0274 65.5412C46.4356 65.6236 47.2314 65.0019 47.626 64.7886C49.5959 63.7236 50.5144 62.945 52.8211 63.8747C56.254 65.2585 58.3387 68.9117 58.9903 72.4536C58.986 72.4587 58.9825 72.4623 58.9789 72.4667C59.1002 72.9279 59.1074 73.4289 59.3022 73.8642C59.3022 73.8642 59.3022 73.8642 59.3022 73.8649C59.4321 74.0796 59.6227 74.217 59.7875 74.4014C59.7932 74.4079 59.799 74.4151 59.8054 74.4216C59.8917 74.47 59.9702 74.5178 60.0416 74.5828C60.6682 74.9002 62.2983 76.2558 62.7501 76.2551C62.8507 76.2551 62.9599 76.1972 63.0541 76.1597C64.3838 75.634 65.8875 74.4173 67.2115 73.781C69.0478 72.9778 70.6936 71.8203 72.4293 70.8291C74.7153 69.5241 77.4053 68.2264 79.5685 66.8021C79.7483 66.6835 80.0873 66.5013 80.1316 66.2743L80.031 63.5653V63.5646ZM77.6779 62.4917C77.6436 62.6767 76.8564 63.1127 76.6552 63.232C73.3643 65.1898 69.8208 66.9554 66.4664 68.838C64.9041 69.715 63.386 70.6932 61.7681 71.4588V63.4612L77.4559 54.6386L77.6779 62.4917ZM72.6791 51.3722L77.219 54.0219C77.2554 54.0696 77.0463 54.2077 76.9949 54.2403C75.6945 55.0775 73.9559 55.8453 72.5649 56.6181C68.9358 58.6345 65.3544 60.7399 61.7003 62.7107C61.5033 62.7527 60.6126 62.1345 60.3763 61.9863C59.3714 61.3559 58.3694 60.6835 57.4316 59.9591C57.4316 59.8665 58.6263 59.1941 58.8083 59.0893C63.3546 56.4613 67.9951 53.9981 72.5428 51.3722H72.6791ZM72.1724 50.7237C72.0668 50.9586 69.8001 52.2253 69.4039 52.4538C66.2208 54.288 62.9978 56.1048 59.7804 57.8769C58.9204 58.3504 58.0518 58.8298 57.1597 59.2375L54.9986 48.194L70.002 39.6743L72.1724 50.7229V50.7237ZM56.5516 59.3409L56.4488 59.4443L50.0434 55.2915V45.5775L54.3006 48.233L56.5516 59.3409ZM65.1396 35.8403C65.4008 35.7955 65.9189 36.1968 66.1673 36.35C67.0409 36.8872 69.0128 38.0426 69.6645 38.7106C69.7444 38.7923 69.8679 38.8559 69.8029 38.9868C69.7301 39.1328 69.2091 39.4162 69.04 39.5225C64.5943 41.9235 60.3171 44.673 55.85 47.0307C55.6102 47.1572 54.7131 47.664 54.5147 47.6076C54.4255 47.5823 53.9544 47.2888 53.8181 47.2114C52.5934 46.5123 51.4251 45.6201 50.2132 44.8906C49.9841 44.5104 50.7007 44.1814 50.9719 44.0115C54.3691 41.8794 58.0903 39.7972 61.5868 37.8083C62.7637 37.1388 63.9434 36.4744 65.1396 35.8403ZM45.9774 64.73L43.3403 63.1799C39.5327 60.6669 35.5773 58.3851 31.7519 55.9031C31.2352 55.5677 29.8948 54.8129 29.5437 54.4326C29.154 54.0103 28.5338 51.7987 28.2341 51.0909C27.3376 48.9762 25.7111 46.6359 23.64 45.5847C21.6295 44.5646 19.2578 44.347 18.0238 46.6048L16.3973 45.5768C16.3124 39.5247 16.3909 33.4697 16.3666 27.4162C16.3659 27.2043 16.2931 27.0171 16.2924 26.8045C16.2867 25.4843 16.3495 24.1721 16.3638 22.8541L19.7046 24.7896L46.0124 40.9771C45.9895 47.3488 45.951 53.7255 45.9745 60.1C45.9753 60.296 46.0473 60.4651 46.0481 60.643C46.0538 62.0138 45.9902 63.3636 45.9774 64.73ZM16.837 22.2374L31.2045 14.1024C31.8261 13.8631 31.8568 13.9491 32.4249 14.2369C34.5881 15.3351 36.9141 16.9192 39.0174 18.1996C46.1194 22.5208 53.2443 26.8407 60.2978 31.2422C60.6575 31.4663 61.018 31.6984 61.3598 31.95L46.4342 40.4855L16.837 22.2374ZM49.4324 62.9782L49.254 63.2089L46.6212 64.6606L46.5848 42.5872C46.7268 42.2127 46.5341 41.356 46.7646 41.1217L54.0651 36.846L61.8366 32.464V36.8916L49.4681 44.271L49.4331 62.9768L49.4324 62.9782ZM62.6488 75.407C62.6366 75.5025 62.6859 75.5256 62.5481 75.5082C61.9037 75.0304 61.1229 74.6428 60.4862 74.1642C59.9995 73.7984 59.8639 73.6502 59.7005 73.0385C59.3143 71.5947 59.2829 70.5652 58.6406 69.1004C57.1818 65.7718 53.938 62.4042 50.0434 62.9464V56.1504C50.2275 56.2509 50.4252 56.3311 50.6065 56.4381C53.153 57.9405 55.8094 59.7197 58.3059 61.3392C59.2523 61.953 60.1808 62.6008 61.1236 63.2219C61.1764 65.2007 61.17 67.1831 61.1607 69.1633C61.1571 69.9702 61.1036 70.5782 61.1607 71.4227C61.1778 71.6793 61.1157 72.0119 61.16 72.2476C61.2185 72.5643 62.3333 73.1217 62.546 73.4521C62.5339 74.0702 62.7273 74.8091 62.6495 75.4085L62.6488 75.407ZM62.8536 72.8043C62.738 72.8708 62.1948 72.2129 62.1827 72.1659C62.1542 72.0574 62.1884 71.9938 62.2855 71.9468L77.9876 63.2016C78.3238 63.0896 78.7335 63.6614 79.1181 63.6325L62.8543 72.8043H62.8536ZM79.4407 66.0198C78.9333 66.3661 78.4137 66.7001 77.8913 67.024C74.4655 69.1511 70.7371 71.0568 67.2115 73.0248C65.8676 73.7752 64.5772 74.6399 63.1912 75.3022C63.1805 74.7202 63.2054 74.1346 63.1912 73.5519C63.1912 73.5323 63.1212 73.4839 63.1319 73.4232L63.1883 73.3465L77.1184 65.4863C77.224 65.8022 77.0391 66.4377 77.2889 66.6857C77.523 66.9481 78.6278 66.4731 78.6992 66.2642C78.787 66.0075 78.6321 65.4985 78.4694 65.2845L78.1011 64.9722L79.4243 64.1155C79.5606 64.0952 79.5114 64.1205 79.5235 64.2153C79.5949 64.7662 79.4985 65.4675 79.4407 66.0213V66.0198Z" fill="white"/>
<path d="M76.3956 56.9134C76.4399 56.9416 76.5348 57.7586 76.5426 57.8974C76.5926 58.8048 76.6112 60.1647 76.5426 61.0605C76.4727 61.9678 76.0131 62.0647 75.2979 62.4768C74.009 63.22 72.648 63.8628 71.344 64.5814C68.7069 66.0346 66.1076 67.5717 63.3984 68.8853C63.1193 68.9395 63.0879 68.5332 63.0622 68.3265C62.9495 67.4169 63.0051 66.5009 62.9887 65.5863C62.9823 65.2371 62.7832 64.4158 63.0066 64.1332C63.2721 63.7962 65.3425 62.8419 65.8778 62.5462C68.9524 60.8486 71.9964 59.0267 75.1152 57.4188C75.3422 57.3017 76.2101 56.7963 76.3956 56.9142V56.9134ZM75.8618 59.1359V57.9003C75.8618 57.8707 76.0438 57.7015 75.8289 57.7297C72.1891 59.9051 68.3658 61.7654 64.7016 63.8953C64.4326 64.0522 63.6839 64.431 63.5782 64.6804C63.4669 64.9443 63.651 65.697 63.6282 66.0353L75.8611 59.1366L75.8618 59.1359ZM75.9296 59.788L63.8716 66.5544C63.4284 66.8827 63.7845 67.5601 63.7317 68.0257L75.724 61.4675C75.809 61.4198 75.8425 61.3569 75.8603 61.2622C75.9367 60.8573 75.8154 60.2341 75.9289 59.788H75.9296Z" fill="white"/>
<path d="M65.3973 72.2295C65.6278 72.2635 65.782 73.5728 65.4523 73.8504C65.1225 74.128 64.5644 74.3153 64.2882 73.8837C63.6694 72.9185 64.6479 72.5187 65.3973 72.2295Z" fill="white"/>
<path d="M24.0356 50.9217C23.6523 50.3563 23.1691 49.9052 22.6738 49.6521C22.1307 49.3745 21.6297 49.3622 21.2628 49.6174C20.542 50.1184 20.6312 51.4755 21.4655 52.7082C22.0957 53.6387 22.945 54.1932 23.6331 54.1932C23.8557 54.1932 24.062 54.1346 24.239 54.0124C24.6058 53.7572 24.775 53.2793 24.715 52.6662C24.6601 52.1074 24.4196 51.4878 24.0363 50.9224L24.0356 50.9217ZM23.9564 53.5953C23.4418 53.9524 22.4476 53.2641 21.8781 52.4219C21.3078 51.5796 21.0309 50.3925 21.5455 50.0353C21.634 49.9739 21.7453 49.9435 21.8723 49.9435C22.0415 49.9435 22.2392 49.9977 22.4497 50.1047C22.8708 50.3194 23.2883 50.712 23.6245 51.2087C23.9606 51.7054 24.1719 52.2411 24.2183 52.7161C24.259 53.1311 24.1633 53.4514 23.9571 53.5953H23.9564Z" fill="white"/>
<path d="M29.0496 53.6748L28.6963 53.3169L27.007 55.0282C27.0633 54.671 27.0726 54.277 27.0312 53.8497C26.9085 52.5918 26.3618 51.1921 25.4925 49.908C24.6232 48.624 23.5305 47.6039 22.4164 47.0349C21.8262 46.7334 21.2638 46.5765 20.7535 46.5621L22.1067 45.5311L21.8062 45.127L19.4317 46.9359C18.6816 47.4636 18.3383 48.4722 18.4661 49.7793C18.5888 51.0373 19.1355 52.437 20.0048 53.721C20.8741 55.0043 21.9668 56.0252 23.0809 56.5942C23.699 56.9101 24.2878 57.0685 24.8166 57.0685C25.2827 57.0685 25.7023 56.9456 26.0563 56.6997C26.2526 56.5638 26.4203 56.3939 26.5602 56.1958L29.0489 53.6748H29.0496ZM23.3064 56.143C22.2658 55.6116 21.2402 54.6501 20.4174 53.4355C19.5952 52.2209 19.0784 50.905 18.9635 49.7302C18.8543 48.6096 19.1241 47.7637 19.7229 47.3472C19.992 47.1607 20.3167 47.0674 20.6821 47.0674C21.1318 47.0674 21.6435 47.2077 22.1909 47.4875C23.2315 48.0189 24.2578 48.9805 25.08 50.1951C25.9022 51.4097 26.4189 52.7255 26.5338 53.9004C26.6144 54.7289 26.4881 55.4063 26.1741 55.8719L25.7587 56.2927C25.1599 56.6976 24.2899 56.6455 23.3064 56.143Z" fill="white"/>
<path d="M54.349 69.157C53.9657 68.5917 53.4826 68.1405 52.9872 67.8875C52.4441 67.6099 51.9431 67.5976 51.5763 67.8528C51.2094 68.108 51.0403 68.5859 51.1002 69.199C51.1552 69.7578 51.3957 70.3774 51.7789 70.9428C52.1622 71.5089 52.6454 71.9593 53.1407 72.2124C53.424 72.357 53.6967 72.43 53.9443 72.43C54.1706 72.43 54.3768 72.3692 54.5517 72.2471C54.9185 71.9918 55.0877 71.514 55.0277 70.9009C54.9728 70.342 54.7322 69.7224 54.349 69.157ZM54.2691 71.8306C54.0621 71.9745 53.7331 71.9492 53.3655 71.7612C52.9444 71.5458 52.5269 71.1539 52.1908 70.6572C51.8546 70.1605 51.6433 69.6255 51.597 69.1498C51.5563 68.7348 51.6519 68.4145 51.8582 68.2707C51.9467 68.2092 52.058 68.1788 52.185 68.1788C52.3542 68.1788 52.5519 68.2331 52.7617 68.3401C53.1828 68.5555 53.6003 68.9474 53.9365 69.4441C54.2726 69.9407 54.4839 70.4765 54.5303 70.9515C54.571 71.3665 54.4753 71.6867 54.2691 71.8306Z" fill="white"/>
<path d="M59.2361 71.7291L58.8649 71.39L57.344 73.0984C57.3797 72.7861 57.3819 72.4477 57.3462 72.0855C57.2234 70.8275 56.6767 69.4278 55.8074 68.1438C54.9382 66.8605 53.8455 65.8397 52.7314 65.2707C52.0826 64.9395 51.4674 64.7819 50.9186 64.7978L52.356 63.5124L52.0255 63.1328L49.7374 65.1789C48.9944 65.7081 48.6554 66.7137 48.7825 68.0144C48.9052 69.2724 49.4519 70.6721 50.3212 71.9561C51.1905 73.2401 52.2832 74.2602 53.3973 74.8292C54.0161 75.1452 54.6041 75.3035 55.133 75.3035C55.599 75.3035 56.0187 75.1806 56.3727 74.9348C56.6246 74.7598 56.8295 74.5299 56.9886 74.2537L59.2368 71.7276L59.2361 71.7291ZM53.6214 74.3788C52.5808 73.8474 51.5545 72.8859 50.7323 71.6712C49.9101 70.4566 49.3934 69.1408 49.2785 67.966C49.1693 66.8453 49.4391 65.9994 50.0379 65.583C50.3069 65.3965 50.6317 65.3032 50.9971 65.3032C51.4467 65.3032 51.9585 65.4435 52.5059 65.7233C53.5464 66.2547 54.5727 67.2162 55.3949 68.4308C56.2171 69.6454 56.7338 70.9613 56.8487 72.1361C56.9215 72.8801 56.8259 73.5018 56.579 73.9588L56.0679 74.5328C55.4692 74.9341 54.602 74.8806 53.6214 74.3795V74.3788Z" fill="white"/>
<path d="M31.6665 15.2539L19.6665 22.7539L47.1665 39.7539L59.6665 31.7539L31.6665 15.2539Z" fill="#EC1C24"/>
</g>
<defs>
<clipPath id="clip0_224_2874">
<rect width="64.4651" height="63" fill="white" transform="translate(15.6665 13.2539)"/>
</clipPath>
</defs>
</svg>
