<svg width="57" height="56" viewBox="0 0 57 56" fill="none" xmlns="http://www.w3.org/2000/svg">
<mask id="mask0_362_660" style="mask-type:alpha" maskUnits="userSpaceOnUse" x="0" y="0" width="57" height="56">
<rect x="0.866333" width="56" height="56" fill="#D9D9D9"/>
</mask>
<g mask="url(#mask0_362_660)">
<path d="M11.7432 47.8327C10.4237 47.8327 9.48592 47.2305 8.92981 46.0261C8.37331 44.8213 8.53645 43.7134 9.41923 42.7023L23.3801 26.3543V11.0978H20.2511C19.8358 11.0978 19.4878 10.9565 19.207 10.6738C18.9258 10.3914 18.7852 10.0414 18.7852 9.62377C18.7852 9.20649 18.9258 8.85921 19.207 8.58193C19.4878 8.30465 19.8358 8.16602 20.2511 8.16602H37.4816C37.897 8.16602 38.245 8.30718 38.5258 8.58952C38.807 8.87224 38.9476 9.22224 38.9476 9.63952C38.9476 10.0572 38.807 10.4047 38.5258 10.6819C38.245 10.9592 37.897 11.0978 37.4816 11.0978H34.3526V26.3543L48.3136 42.7023C49.1963 43.7134 49.3595 44.8213 48.803 46.0261C48.2469 47.2305 47.3091 47.8327 45.9896 47.8327H11.7432ZM16.1258 42.8522H41.607L32.9946 32.8008H24.7381L16.1258 42.8522ZM11.3961 44.9008H46.3366L31.4208 27.4102V11.0978H26.312V27.4102L11.3961 44.9008Z" fill="#EC1C24"/>
</g>
</svg>
