<svg width="57" height="57" viewBox="0 0 57 57" fill="none" xmlns="http://www.w3.org/2000/svg">
<mask id="mask0_362_666" style="mask-type:alpha" maskUnits="userSpaceOnUse" x="0" y="0" width="57" height="57">
<rect x="0.914917" y="0.421875" width="56" height="56" fill="#D9D9D9"/>
</mask>
<g mask="url(#mask0_362_666)">
<path d="M4.37463 48.4789V43.8606C4.37463 42.6959 4.66475 41.6938 5.24497 40.8541C5.82519 40.0145 6.64594 39.3334 7.70722 38.8107C9.70338 37.8296 11.8786 37.0269 14.233 36.4027C16.5873 35.7786 19.0976 35.4665 21.7638 35.4665C24.43 35.4665 26.9378 35.7786 29.2871 36.4027C31.6363 37.0269 33.8141 37.8296 35.8204 38.8107C36.8716 39.3334 37.6898 40.0145 38.2751 40.8541C38.8603 41.6938 39.153 42.6959 39.153 43.8606V48.4789H4.37463ZM7.30588 45.5476H36.2217V43.8606C36.2217 43.2544 36.0485 42.7546 35.702 42.3615C35.3555 41.9687 34.9333 41.6527 34.4356 41.4136C32.8742 40.6774 31.0277 39.9908 28.8962 39.3538C26.7647 38.7168 24.3872 38.3983 21.7638 38.3983C19.1404 38.3983 16.7604 38.7168 14.6238 39.3538C12.4876 39.9908 10.6437 40.6774 9.09205 41.4136C8.59427 41.6527 8.17213 41.9687 7.82563 42.3615C7.47913 42.7546 7.30588 43.2544 7.30588 43.8606V45.5476ZM21.7638 31.1288C19.4814 31.1288 17.5971 30.3777 16.1107 28.8754C14.6244 27.3731 13.8812 25.452 13.8812 23.1121H13.3428C13.0539 23.1121 12.8096 23.0123 12.6101 22.8128C12.4106 22.6133 12.3109 22.3689 12.3109 22.0796C12.3109 21.8003 12.4106 21.5586 12.6101 21.3545C12.8096 21.1499 13.0539 21.0476 13.3428 21.0476H13.8812C13.9014 19.6815 14.2186 18.4438 14.8326 17.3347C15.4471 16.2252 16.3077 15.2602 17.4145 14.4396V16.6802C17.4145 16.9276 17.5022 17.1364 17.6775 17.3067C17.8529 17.4775 18.0643 17.5628 18.3116 17.5628C18.5749 17.5628 18.7878 17.4775 18.9504 17.3067C19.1129 17.1364 19.1942 16.9276 19.1942 16.6802V13.6381C19.5131 13.5374 19.9102 13.4503 20.3854 13.3768C20.8606 13.3037 21.3281 13.2671 21.7877 13.2671C22.2474 13.2671 22.7148 13.3037 23.19 13.3768C23.6653 13.4503 24.0623 13.5374 24.3812 13.6381V16.6802C24.3812 16.9276 24.4625 17.1364 24.6251 17.3067C24.7876 17.4775 25.0005 17.5628 25.2638 17.5628C25.5111 17.5628 25.7225 17.4775 25.8979 17.3067C26.0733 17.1364 26.161 16.9276 26.161 16.6802V14.4396C27.2829 15.2602 28.1367 16.2252 28.7224 17.3347C29.3084 18.4438 29.6164 19.6815 29.6464 21.0476H30.1848C30.4737 21.0476 30.718 21.1499 30.9175 21.3545C31.117 21.5586 31.2167 21.8003 31.2167 22.0796C31.2167 22.3689 31.117 22.6133 30.9175 22.8128C30.718 23.0123 30.4737 23.1121 30.1848 23.1121H29.6464C29.6464 25.452 28.9007 27.3731 27.4093 28.8754C25.9183 30.3777 24.0365 31.1288 21.7638 31.1288ZM21.7638 28.1976C23.2404 28.1976 24.4347 27.7336 25.3466 26.8057C26.2586 25.8778 26.7146 24.6913 26.7146 23.2462H16.8131C16.8131 24.6913 17.269 25.8778 18.181 26.8057C19.0929 27.7336 20.2872 28.1976 21.7638 28.1976ZM39.3566 35.218L39.2218 33.5368C38.9426 33.4271 38.649 33.2801 38.341 33.0958C38.033 32.9111 37.7662 32.7141 37.5406 32.5049L36.0001 33.244L34.9203 31.5237L36.3594 30.4854C36.2976 30.3232 36.2641 30.1673 36.2591 30.0176C36.254 29.8678 36.2515 29.7168 36.2515 29.5643C36.2515 29.4018 36.254 29.2518 36.2591 29.1146C36.2641 28.9777 36.2976 28.8204 36.3594 28.6426L34.9203 27.5897L36.0001 25.8701L37.5406 26.6086C37.7841 26.4071 38.0553 26.2148 38.3544 26.0316C38.6534 25.8481 38.9426 25.6964 39.2218 25.5766L39.3566 23.9106H41.4204L41.5703 25.5766C41.8495 25.6964 42.1387 25.8481 42.4377 26.0316C42.7368 26.2148 43.008 26.4071 43.2515 26.6086L44.7769 25.8701L45.8718 27.5897L44.4333 28.6426C44.4947 28.8204 44.5255 28.9777 44.5255 29.1146V30.0176C44.5255 30.1673 44.4947 30.3232 44.4333 30.4854L45.8718 31.5237L44.7769 33.244L43.2515 32.5049C43.0259 32.7141 42.7591 32.9111 42.4511 33.0958C42.1431 33.2801 41.8495 33.4271 41.5703 33.5368L41.4204 35.218H39.3566ZM40.3885 31.7151C40.9889 31.7151 41.4999 31.5066 41.9215 31.0897C42.3434 30.6732 42.5544 30.1648 42.5544 29.5643C42.5544 28.9639 42.3434 28.4529 41.9215 28.0313C41.4999 27.6094 40.9889 27.3984 40.3885 27.3984C39.7884 27.3984 39.2799 27.6094 38.863 28.0313C38.4462 28.4529 38.2377 28.9639 38.2377 29.5643C38.2377 30.1648 38.4462 30.6732 38.863 31.0897C39.2799 31.5066 39.7884 31.7151 40.3885 31.7151ZM45.3153 22.576L44.9595 20.6376C44.5488 20.5201 44.1175 20.3239 43.6656 20.049C43.2141 19.7744 42.8536 19.4672 42.5841 19.1273L40.4305 19.9615L39.3326 18.0709L41.1305 16.6831C41.0527 16.4735 40.9918 16.2542 40.9479 16.0251C40.9039 15.7957 40.882 15.5633 40.882 15.3281C40.882 15.1025 40.9039 14.8727 40.9479 14.6386C40.9918 14.4041 41.0527 14.1822 41.1305 13.973L39.3326 12.5998L40.4305 10.7092L42.5841 11.5288C42.8536 11.1889 43.2141 10.8776 43.6656 10.5949C44.1175 10.3122 44.5488 10.1249 44.9595 10.0331L45.3153 8.09473H47.4485L47.8044 10.0331C48.2151 10.1249 48.6463 10.3122 49.0982 10.5949C49.5497 10.8776 49.9151 11.1889 50.1943 11.5288L52.3334 10.7092L53.4312 12.5998L51.6334 13.973C51.7112 14.1822 51.772 14.4041 51.816 14.6386C51.8599 14.8727 51.8819 15.1025 51.8819 15.3281C51.8819 15.5633 51.8599 15.7957 51.816 16.0251C51.772 16.2542 51.7112 16.4735 51.6334 16.6831L53.4312 18.0709L52.3334 19.9615L50.1943 19.1273C49.9151 19.4672 49.5497 19.7744 49.0982 20.049C48.6463 20.3239 48.2151 20.5201 47.8044 20.6376L47.4485 22.576H45.3153ZM46.3892 18.6157C47.3249 18.6157 48.1042 18.304 48.7272 17.6806C49.3506 17.0576 49.6623 16.2734 49.6623 15.3281C49.6623 14.3928 49.3506 13.6135 48.7272 12.9901C48.1042 12.3671 47.3249 12.0556 46.3892 12.0556C45.4442 12.0556 44.66 12.3671 44.0366 12.9901C43.4132 13.6135 43.1016 14.3928 43.1016 15.3281C43.1016 16.2734 43.4132 17.0576 44.0366 17.6806C44.66 18.304 45.4442 18.6157 46.3892 18.6157Z" fill="#EC1C24"/>
</g>
</svg>
