<svg width="57" height="57" viewBox="0 0 57 57" fill="none" xmlns="http://www.w3.org/2000/svg">
<mask id="mask0_362_654" style="mask-type:alpha" maskUnits="userSpaceOnUse" x="0" y="0" width="57" height="57">
<rect x="0.866333" y="0.18457" width="56" height="56" fill="#D9D9D9"/>
</mask>
<g mask="url(#mask0_362_654)">
<path d="M21.1575 46.9579L7.75892 33.5594C7.41086 33.2066 7.1472 32.8137 6.96792 32.3805C6.78903 31.9468 6.69958 31.5039 6.69958 31.0516C6.69958 30.5795 6.78903 30.1321 6.96792 29.7094C7.1472 29.2866 7.41086 28.8964 7.75892 28.5386L21.5192 14.79L14.8453 8.19078L17.0199 5.99512L39.5418 28.5625C39.9105 28.9195 40.1794 29.3098 40.3486 29.7333C40.5174 30.1564 40.6018 30.6046 40.6018 31.0779C40.6018 31.5313 40.5174 31.9741 40.3486 32.4061C40.1794 32.8382 39.9097 33.2302 39.5395 33.5821L26.1783 46.9579C25.8205 47.306 25.4302 47.5697 25.0075 47.749C24.5848 47.9278 24.1374 48.0173 23.6653 48.0173C23.213 48.0173 22.77 47.9278 22.3364 47.749C21.9032 47.5697 21.5102 47.306 21.1575 46.9579ZM23.6612 16.9314L10.0322 30.5756C9.94234 30.6655 9.88245 30.7553 9.8525 30.8451C9.82256 30.9346 9.80759 31.0242 9.80759 31.114H37.5293C37.5293 31.0242 37.5144 30.9346 37.4844 30.8451C37.4545 30.7553 37.3948 30.6655 37.3053 30.5756L23.6612 16.9314ZM46.7133 48.0173C45.5218 48.0173 44.5161 47.5979 43.6963 46.759C42.8766 45.9202 42.4667 44.8966 42.4667 43.6884C42.4667 42.7519 42.6553 41.8627 43.0325 41.0208C43.4093 40.1788 43.8978 39.3919 44.4978 38.66L46.7268 35.8274L49.0239 38.66C49.6003 39.3919 50.0829 40.1788 50.4718 41.0208C50.8606 41.8627 51.0551 42.7519 51.0551 43.6884C51.0551 44.9068 50.6318 45.9328 49.7852 46.7666C48.9389 47.6004 47.915 48.0173 46.7133 48.0173Z" fill="#EC1C24"/>
</g>
</svg>
