<svg width="57" height="56" viewBox="0 0 57 56" fill="none" xmlns="http://www.w3.org/2000/svg">
<mask id="mask0_362_672" style="mask-type:alpha" maskUnits="userSpaceOnUse" x="0" y="0" width="57" height="56">
<rect x="0.866333" width="56" height="56" fill="#D9D9D9"/>
</mask>
<g mask="url(#mask0_362_672)">
<path d="M28.9532 38.9124L19.0366 48.8057C18.3327 49.5364 17.4684 49.9018 16.4436 49.9018C15.4189 49.9018 14.562 49.5364 13.8729 48.8057L8.0384 42.9706C7.30767 42.2769 6.9462 41.4217 6.95398 40.4051C6.96215 39.3882 7.32362 38.5223 8.0384 37.8076L17.9294 27.8921L8.10548 18.0203C7.41676 17.3312 7.03992 16.4957 6.97498 15.5137C6.91004 14.5314 7.22717 13.6957 7.9264 13.0066L13.8729 7.06006C14.5717 6.34489 15.4286 5.9873 16.4436 5.9873C17.4583 5.9873 18.3226 6.34489 19.0366 7.06006L28.9305 16.954L38.8011 7.06006C39.5108 6.34489 40.37 5.99139 41.3788 5.99955C42.3876 6.00733 43.2494 6.36083 43.9641 7.06006L49.7841 12.88C50.4829 13.5994 50.8364 14.4635 50.8446 15.4723C50.8523 16.4811 50.4988 17.338 49.7841 18.0431L39.9059 27.9597L49.7613 37.8297C50.4913 38.541 50.8562 39.4069 50.8562 40.4273C50.8562 41.4478 50.4988 42.3105 49.7841 43.0156L43.9041 48.895C43.2002 49.5993 42.3534 49.9325 41.3636 49.8948C40.3743 49.8575 39.5275 49.4869 38.8232 48.783L28.9532 38.9124ZM28.9567 25.9776C29.5486 25.9776 30.0435 25.7775 30.4413 25.3773C30.8391 24.9767 31.0381 24.4805 31.0381 23.8886C31.0381 23.2967 30.8378 22.8021 30.4372 22.4046C30.0371 22.0068 29.541 21.8079 28.9491 21.8079C28.3573 21.8079 27.8624 22.008 27.4646 22.4081C27.0667 22.8087 26.8678 23.3049 26.8678 23.8968C26.8678 24.4887 27.0681 24.9836 27.4686 25.3814C27.8692 25.7788 28.3652 25.9776 28.9567 25.9776ZM19.8847 25.9373L26.8906 18.9554L16.9961 9.0848C16.8615 8.95025 16.697 8.88297 16.5026 8.88297C16.3081 8.88297 16.1436 8.95025 16.0091 9.0848L10.062 15.0319C9.92742 15.1664 9.86015 15.3309 9.86015 15.5254C9.86015 15.7198 9.92742 15.8845 10.062 16.0195L19.8847 25.9373ZM24.9125 29.9985C25.5001 29.9985 25.9915 29.7982 26.3866 29.3976C26.7813 28.9971 26.9786 28.5011 26.9786 27.9096C26.9786 27.3177 26.7799 26.8228 26.3825 26.425C25.985 26.0271 25.4925 25.8282 24.9049 25.8282C24.3173 25.8282 23.8234 26.0285 23.4232 26.4291C23.0235 26.8292 22.8236 27.3252 22.8236 27.9171C22.8236 28.509 23.0238 29.0039 23.4244 29.4017C23.8246 29.7996 24.3206 29.9985 24.9125 29.9985ZM28.9567 34.0427C29.5486 34.0427 30.0435 33.8424 30.4413 33.4419C30.8391 33.0417 31.0381 32.5457 31.0381 31.9538C31.0381 31.3662 30.8378 30.8748 30.4372 30.4797C30.0371 30.085 29.541 29.8876 28.9491 29.8876C28.3573 29.8876 27.8624 30.0864 27.4646 30.4838C27.0667 30.8812 26.8678 31.3738 26.8678 31.9614C26.8678 32.549 27.0681 33.0429 27.4686 33.4431C27.8692 33.8428 28.3652 34.0427 28.9567 34.0427ZM32.9776 29.9985C33.5695 29.9985 34.0642 29.7982 34.4616 29.3976C34.8595 28.9971 35.0584 28.5011 35.0584 27.9096C35.0584 27.3177 34.8583 26.8228 34.4581 26.425C34.0576 26.0271 33.5614 25.8282 32.9695 25.8282C32.3776 25.8282 31.8827 26.0285 31.4849 26.4291C31.0875 26.8292 30.8887 27.3252 30.8887 27.9171C30.8887 28.509 31.0888 29.0039 31.489 29.4017C31.8895 29.7996 32.3858 29.9985 32.9776 29.9985ZM30.9301 36.8876L40.8468 46.8043C40.9818 46.9389 41.1465 47.0061 41.3409 47.0061C41.5353 47.0061 41.6998 46.9389 41.8344 46.8043L47.7815 40.8572C47.916 40.7227 47.9833 40.5582 47.9833 40.3637C47.9833 40.1693 47.916 40.0048 47.7815 39.8702L37.8887 29.9775L30.9301 36.8876Z" fill="#EC1C24"/>
</g>
</svg>
