<svg width="57" height="57" viewBox="0 0 57 57" fill="none" xmlns="http://www.w3.org/2000/svg">
<mask id="mask0_362_684" style="mask-type:alpha" maskUnits="userSpaceOnUse" x="0" y="0" width="57" height="57">
<rect x="0.866333" y="0.5" width="56" height="56" fill="#D9D9D9"/>
</mask>
<g mask="url(#mask0_362_684)">
<path d="M25.3033 13.4144C25.7906 13.3374 26.2349 13.2797 26.6363 13.2412C27.038 13.2031 27.4788 13.184 27.9587 13.184C28.4382 13.184 28.8788 13.2031 29.2805 13.2412C29.6822 13.2797 30.1265 13.3374 30.6134 13.4144V13.184C30.6134 12.4237 30.3622 11.7675 29.8598 11.2152C29.3569 10.663 28.7232 10.3869 27.9587 10.3869C27.1937 10.3869 26.56 10.663 26.0576 11.2152C25.5548 11.7675 25.3033 12.4237 25.3033 13.184V13.4144ZM16.4338 50.8014C15.4308 50.8014 14.572 50.4438 13.8572 49.7287C13.142 49.0135 12.7844 48.1544 12.7844 47.1515V28.3507C12.7844 25.1369 13.6818 22.2653 15.4765 19.736C17.2716 17.2067 19.5701 15.3806 22.3721 14.2579V13.184C22.3721 11.6401 22.9103 10.2994 23.9868 9.16191C25.0632 8.02402 26.3831 7.45508 27.9464 7.45508C29.5136 7.45508 30.8386 8.02402 31.9213 9.16191C33.0035 10.2994 33.5447 11.6401 33.5447 13.184V14.2579C36.1432 15.2959 38.3346 16.9712 40.1188 19.2839C41.9027 21.597 42.8842 24.327 43.0635 27.4739C42.6097 27.4521 42.1133 27.4346 41.5743 27.4214C41.0353 27.4086 40.5546 27.4092 40.1323 27.4232C39.8511 24.1067 38.5207 21.3929 36.1411 19.2816C33.7611 17.1707 31.0373 16.1152 27.9698 16.1152C24.5794 16.1152 21.6896 17.3082 19.3003 19.694C16.9105 22.0798 15.7157 24.9654 15.7157 28.3507V47.1515C15.7157 47.3409 15.7905 47.5079 15.9403 47.6526C16.09 47.7972 16.2545 47.8696 16.4338 47.8696H27.45C27.5807 48.3522 27.792 48.8636 28.0841 49.4037C28.3765 49.9435 28.7036 50.4094 29.0653 50.8014H16.4338ZM18.3483 32.1493H30.2471C30.7445 31.5952 31.309 31.0618 31.9405 30.5492C32.5725 30.0367 33.2763 29.593 34.0522 29.2181H18.3483V32.1493ZM41.3555 31.9492C44.2146 31.9492 46.6504 32.9555 48.6629 34.968C50.6758 36.9805 51.6823 39.4188 51.6823 42.283C51.6823 45.1472 50.6758 47.5855 48.6629 49.598C46.6504 51.6105 44.2121 52.6168 41.3479 52.6168C38.4841 52.6168 36.0458 51.6107 34.0329 49.5986C32.0204 47.5865 31.0142 45.1454 31.0142 42.2754C31.0142 39.4163 32.0202 36.9805 34.0323 34.968C36.0448 32.9555 38.4859 31.9492 41.3555 31.9492ZM41.3835 49.2217C41.7965 49.2217 42.1374 49.0823 42.4061 48.8035C42.6748 48.5251 42.8092 48.1815 42.8092 47.7728C42.8092 47.364 42.6735 47.0218 42.402 46.7461C42.1306 46.47 41.7883 46.3319 41.3753 46.3319C40.9623 46.3319 40.619 46.4713 40.3452 46.7502C40.0714 47.0286 39.9345 47.3722 39.9345 47.7809C39.9345 48.1896 40.0739 48.5321 40.3528 48.8082C40.6312 49.0839 40.9748 49.2217 41.3835 49.2217ZM40.3563 44.7493H42.3874V44.2337C42.3874 43.7639 42.5107 43.3604 42.7573 43.0232C43.0034 42.6865 43.2879 42.3592 43.6107 42.0415C44.1753 41.5655 44.6276 41.0866 44.9675 40.6047C45.3078 40.1233 45.4779 39.5009 45.4779 38.7375C45.4779 37.5926 45.0964 36.6641 44.3334 35.9521C43.5704 35.24 42.5865 34.884 41.3818 34.884C40.4578 34.884 39.6111 35.1568 38.8419 35.7024C38.0727 36.2484 37.5325 36.9809 37.2214 37.8998L39.0793 38.6558C39.1972 38.1452 39.4698 37.7114 39.8972 37.3544C40.3249 36.9974 40.8237 36.8189 41.3934 36.8189C42.0324 36.8189 42.5342 36.9815 42.899 37.3066C43.2642 37.6313 43.4468 38.1085 43.4468 38.7381C43.4468 39.1826 43.311 39.5662 43.0396 39.889C42.7685 40.2122 42.4794 40.5281 42.1722 40.8369C41.9069 41.0862 41.645 41.3429 41.3864 41.6069C41.1274 41.8714 40.9007 42.1512 40.7063 42.4463C40.5736 42.6664 40.4823 42.9009 40.4321 43.1498C40.3815 43.3983 40.3563 43.6671 40.3563 43.956V44.7493Z" fill="#EC1C24"/>
</g>
</svg>
