<svg width="57" height="56" viewBox="0 0 57 56" fill="none" xmlns="http://www.w3.org/2000/svg">
<mask id="mask0_362_642" style="mask-type:alpha" maskUnits="userSpaceOnUse" x="0" y="0" width="57" height="56">
<rect x="0.579956" width="56" height="56" fill="#D9D9D9"/>
</mask>
<g mask="url(#mask0_362_642)">
<path d="M17.6461 50.75V29.4718C15.7269 29.1299 14.1004 28.2073 12.7665 26.7038C11.433 25.2008 10.7662 23.3893 10.7662 21.2695V5.25H13.6975V21.2695H17.6461V5.25H20.5779V21.2695H24.5119V5.25H27.4432V21.2695C27.4432 23.3893 26.7764 25.2008 25.4429 26.7038C24.109 28.2073 22.4873 29.1299 20.5779 29.4718V50.75H17.6461ZM40.5011 50.75V32.0833H34.2787V15.6153C34.2787 12.7853 35.113 10.3989 36.7817 8.456C38.4505 6.51311 40.6673 5.45942 43.4323 5.29492V50.75H40.5011Z" fill="#EC1C24"/>
</g>
</svg>
